<svg width="375" height="812" viewBox="0 0 375 812" fill="none" xmlns="http://www.w3.org/2000/svg">
<g clip-path="url(#clip0_136_1017)">
<rect width="375" height="812" fill="white"/>
<path fill-rule="evenodd" clip-rule="evenodd" d="M351.291 554.985C132.626 566.555 -107.443 689.255 -146.388 872.704C-146.388 872.704 -174.538 667.539 -46.0229 508.917C-81.6648 498.462 -115.91 485.706 -147.064 470.139C-146.906 469.129 -146.748 468.11 -146.59 467.1C-149.119 422.902 -163.594 -88.7288 522 -97.8389V152.288C274.149 152.288 96.3079 204.753 -17.3809 294.509C-17.3809 294.509 142.507 339.111 364.026 329.429C370.877 329.008 377.825 328.657 384.86 328.367V554.089C384.86 554.089 372.572 554.704 351.291 554.985Z" stroke="#484ED4" stroke-width="2" stroke-miterlimit="1.5" stroke-linecap="round" stroke-linejoin="round"/>
<g clip-path="url(#clip1_136_1017)">
<path d="M141.693 467.707H150.537V443.662H158.759V435.939H150.537V433.073C150.537 430.457 151.845 429.211 155.209 429.211C156.33 429.211 157.451 429.336 158.759 429.585V422.11C156.89 421.737 155.084 421.55 153.403 421.55C145.118 421.55 141.693 425.474 141.693 432.139V435.939H135.838V443.662H141.693V467.707Z" fill="#484ED4"/>
<path d="M171.093 422.11H162.248V467.707H171.093V422.11Z" fill="#484ED4"/>
<path d="M193.017 468.579C198.934 468.579 203.606 466.461 206.595 462.849L201.55 457.616C199.433 459.92 196.63 461.041 193.328 461.041C188.657 461.041 185.667 458.862 184.795 454.439H207.592C207.716 453.38 207.779 452.384 207.779 451.387C207.779 441.482 201.55 435.066 192.145 435.066C182.366 435.066 175.889 442.106 175.889 451.947C175.889 462.101 182.677 468.579 193.017 468.579ZM184.795 448.708C185.543 444.722 188.096 442.541 192.207 442.541C196.318 442.541 198.686 444.784 198.997 448.708H184.795Z" fill="#484ED4"/>
<path d="M230.7 467.707H240.666L229.766 451.449L240.043 435.939H230.202L224.098 445.718L217.993 435.939H208.215L218.43 451.449L207.592 467.707H217.495L224.098 457.304L230.7 467.707Z" fill="#484ED4"/>
<path d="M263.712 467.707H273.678L262.778 451.449L273.055 435.939H263.214L257.11 445.718L251.006 435.939H241.227L251.441 451.449L240.604 467.707H250.507L257.11 457.304L263.712 467.707Z" fill="#484ED4"/>
<path d="M287.878 468.579C292.426 468.579 296.412 466.523 298.281 462.973V467.707H307.001V435.939H298.281V440.672C296.412 437.122 292.426 435.066 287.878 435.066C279.595 435.066 273.553 441.919 273.553 451.823C273.553 461.727 279.595 468.579 287.878 468.579ZM282.522 451.823C282.522 446.591 285.574 443.04 290.494 443.04C295.415 443.04 298.468 446.591 298.468 451.823C298.468 457.055 295.415 460.606 290.494 460.606C285.574 460.606 282.522 457.055 282.522 451.823Z" fill="#484ED4"/>
<path fill-rule="evenodd" clip-rule="evenodd" d="M69.1445 452.133C84.0815 459.595 108.607 458.361 108.607 458.361V441.617C91.3763 442.622 78.7656 439.105 78.7656 439.105H72.9975C72.9975 439.105 70.3552 444.236 69.1445 452.133Z" fill="#CB297E"/>
<path fill-rule="evenodd" clip-rule="evenodd" d="M108.606 441.615V458.359C91.7672 458.359 72.2314 467.685 69.1939 481.993C69.1939 481.993 63.902 443.44 108.606 441.615Z" fill="#13BEBB"/>
<path fill-rule="evenodd" clip-rule="evenodd" d="M69.1947 452.132C69.1947 452.132 65.6206 410.706 118.782 410V428.554C90.4639 428.554 74.465 437.785 69.1947 452.132Z" fill="#484ED4"/>
</g>
</g>
<defs>
<clipPath id="clip0_136_1017">
<rect width="375" height="812" fill="white"/>
</clipPath>
<clipPath id="clip1_136_1017">
<rect width="238" height="72" fill="white" transform="translate(69 410)"/>
</clipPath>
</defs>
</svg>
